<svg width="428" height="428" viewBox="0 0 428 428" fill="none" xmlns="http://www.w3.org/2000/svg">
<g clip-path="url(#clip0_8947_7954)">
<mask id="mask0_8947_7954" style="mask-type:alpha" maskUnits="userSpaceOnUse" x="55" y="59" width="199" height="310">
<ellipse cx="154.387" cy="213.752" rx="93.2354" ry="157.77" transform="rotate(15 154.387 213.752)" fill="#D9D9D9"/>
</mask>
<g mask="url(#mask0_8947_7954)">
<ellipse cx="154.387" cy="213.752" rx="93.2354" ry="157.77" transform="rotate(15 154.387 213.752)" fill="white"/>
<path d="M42.6711 178.016H144.769L103.93 280.113H1.83203L42.6711 178.016Z" fill="black"/>
</g>
<mask id="mask1_8947_7954" style="mask-type:alpha" maskUnits="userSpaceOnUse" x="173" y="59" width="199" height="310">
<ellipse cx="272.676" cy="213.756" rx="93.2354" ry="157.77" transform="rotate(15 272.676 213.756)" fill="#D9D9D9"/>
</mask>
<g mask="url(#mask1_8947_7954)">
<ellipse cx="272.676" cy="213.756" rx="93.2354" ry="157.77" transform="rotate(15 272.676 213.756)" fill="white"/>
<path d="M161.351 178.016H263.449L222.609 280.113H120.512L161.351 178.016Z" fill="black"/>
</g>
<path d="M193.1 334.398L202.7 328.586L195.079 315.997L184.955 326.678L193.1 334.398ZM113.486 366.01L116.39 355.171L113.486 366.01ZM195.154 61.222L192.249 72.0617L195.154 61.222ZM234.217 92.835L224.617 98.6466L232.239 111.236L242.362 100.555L234.217 92.835ZM313.831 61.222L316.736 50.3824L313.831 61.222ZM363.056 237.747L352.216 234.843L363.056 237.747ZM232.163 366.01L235.068 355.171H235.068L232.163 366.01ZM184.955 326.678C161.709 351.203 136.968 360.685 116.39 355.171L110.581 376.85C142.546 385.415 175.293 369.497 201.245 342.117L184.955 326.678ZM116.39 355.171C96.9068 349.95 80.9335 331.274 72.5745 301.298C64.2939 271.602 64.2532 232.874 75.101 192.39L53.4217 186.581C41.7175 230.261 41.4202 273.132 50.9553 307.326C60.4122 341.24 80.3272 368.744 110.581 376.85L116.39 355.171ZM75.101 192.39C85.9487 151.905 105.348 118.386 127.367 96.8093C149.594 75.0287 172.766 66.8411 192.249 72.0617L198.058 50.3824C167.804 42.2758 136.805 56.1372 111.659 80.7787C86.3038 105.624 65.1259 142.9 53.4217 186.581L75.101 192.39ZM192.249 72.0617C204.951 75.4651 216.018 84.4414 224.617 98.6466L243.817 87.0234C232.964 69.0946 217.604 55.6198 198.058 50.3824L192.249 72.0617ZM242.362 100.555C265.608 76.0294 290.349 66.5478 310.927 72.0617L316.736 50.3824C284.772 41.8177 252.024 57.7351 226.073 85.1152L242.362 100.555ZM310.927 72.0617C330.41 77.2823 346.384 95.9588 354.743 125.935C363.023 155.63 363.064 194.359 352.216 234.843L373.895 240.652C385.6 196.971 385.897 154.1 376.362 119.906C366.905 85.9927 346.99 58.489 316.736 50.3824L310.927 72.0617ZM352.216 234.843C341.368 275.327 321.969 308.847 299.95 330.423C277.723 352.204 254.551 360.391 235.068 355.171L229.259 376.85C259.513 384.957 290.512 371.095 315.659 346.454C341.013 321.608 362.191 284.333 373.895 240.652L352.216 234.843ZM235.068 355.171C222.366 351.767 211.299 342.791 202.7 328.586L183.5 340.209C194.353 358.138 209.713 371.613 229.259 376.85L235.068 355.171Z" fill="black"/>
</g>
<defs>
<clipPath id="clip0_8947_7954">
<rect width="427.5" height="427.5" rx="37.1739" fill="white"/>
</clipPath>
</defs>
</svg>
